#define n6_width 16
#define n6_height 16
static char n6_bits[] = {
  0x00, 0x00, 0x00, 0x00, 0x00, 0x00, 0x00, 0x00, 0x08, 0x00, 0xFC, 0x03, 
  0xFF, 0x03, 0x9F, 0x03, 0x0F, 0x07, 0xFC, 0x03, 0x68, 0x01, 0x00, 0x00, 
  0x00, 0x00, 0x00, 0x00, 0x00, 0x00, 0x00, 0x00, };
