#define A_width 7
#define A_height 13
static char A_bits[] = {
  0x00, 0x00, 0x00, 0x00, 0x0F, 0x0F, 0x1B, 0x1B, 0x06, 0x00, 0x00, 0x00, 
  0x00, };
