#define B_width 16
#define B_height 16
static char B_bits[] = {
  0x00, 0x00, 0x00, 0x00, 0x00, 0x00, 0x00, 0x00, 0x04, 0x00, 0xFF, 0x1F, 
  0x07, 0x3C, 0x7F, 0x1F, 0x17, 0x7C, 0x07, 0x70, 0xFF, 0x1F, 0x02, 0x00, 
  0x00, 0x00, 0x00, 0x00, 0x00, 0x00, 0x00, 0x00, };
