#define test_width 16
#define test_height 16
static char test_bits[] = {
  0x00, 0x00, 0x00, 0x00, 0x00, 0x00, 0x00, 0x00, 0x00, 0x00, 0xF0, 0x0F, 
  0xE8, 0x03, 0xF0, 0x0F, 0xF0, 0x07, 0xE8, 0x07, 0xF0, 0x0F, 0xE0, 0x07, 
  0x00, 0x00, 0x00, 0x00, 0x00, 0x00, 0x00, 0x00, };
